<?xml version="1.0" encoding="utf-8"?>
<!-- Generator: Adobe Illustrator 27.8.1, SVG Export Plug-In . SVG Version: 6.00 Build 0)  -->
<svg version="1.1" id="Laag_1" xmlns="http://www.w3.org/2000/svg" xmlns:xlink="http://www.w3.org/1999/xlink" x="0px" y="0px"
	 viewBox="0 0 768 1024" style="enable-background:new 0 0 768 1024;" xml:space="preserve">
<style type="text/css">
	.st0{fill:none;}
	.st1{fill:#FFFFFF;}
	.st2{font-family:'Helvetica';}
	.st3{font-size:54px;}
</style>
<path id="svg_path" d="M373.93,434.06c0,0-33-34-71-30c-31.67,3.33-69.58,28.19-68.03,72.85c0.55,15.79,6.22,30.96,15.59,43.68
	c8.15,11.07,22.48,28.51,46.44,52.48c39.07,39.07,68.34,66.38,75.38,72.89c0.91,0.85,2.32,0.83,3.22-0.03l108.4-103.86
	c0,0,51-51,24-101s-81-39-94-33S391.93,418.06,373.93,434.06z"/>
<rect x="284.09" y="489.06" class="st0" width="196.84" height="51"/>
<text transform="matrix(1 0 0 1 284.0907 527.8907)" class="st1 st2 st3">ABOUT</text>
<path id="svg_path" class="st1" d="M494.85,467.26c-0.54-11.47-6.86-59.5-75.61-39.85c-0.54,0.16-0.43,0.79,0.13,0.72
	c14.64-1.74,55.78-2.53,74.57,39.33C494.12,467.86,494.87,467.69,494.85,467.26z"/>
</svg>
