<?xml version="1.0" encoding="utf-8"?>
<!-- Generator: Adobe Illustrator 27.8.1, SVG Export Plug-In . SVG Version: 6.00 Build 0)  -->
<svg version="1.1" id="Laag_1" xmlns="http://www.w3.org/2000/svg" xmlns:xlink="http://www.w3.org/1999/xlink" x="0px" y="0px"	 viewBox="0 0 768 1024" style="enable-background:new 0 0 768 1024;" xml:space="preserve">
<style type="text/css">
	.st0{stroke:#000000;stroke-miterlimit:10;}
	.st1{fill:#FFFFFF;}
</style>

<path id="svg_path" class="st0" d="M391.19,632.57c2.98,12.08,10.41,27.3,15.21,36.4c4.65,8.83,11.04,16.66,18.91,22.79
	c15.36,11.96,41.47,22.51,71.48-6.31c48.01-46.11,16.66-201.58,5.4-250.57s-31.78-104.61-116.52-105.93
	c-84.74-1.32-122.48,131.75-129.1,155.58c-6.62,23.83-33.1,161.54,22.51,198.62c55.61,37.08,80.83-5.74,80.83-5.74
	c4.47-8.33,6.13-10.77,8.34-16.21c7.52-18.51,7.13-24.86,7.6-26.69l0,0c4.74,2.29,10.37,1.76,14.59-1.39L391.19,632.57z
	 M390.63,592.44c-11.4,2.3-24.58-13.82-29.45-36.02c-4.86-22.2,0.44-42.06,11.84-44.36c11.4-2.3,24.58,13.82,29.45,36.02
	C407.33,570.28,402.03,590.14,390.63,592.44z"/>
<path id="svg_path" class="st1" d="M407.89,525.3c-2.45-8.5-11.59-34.22-30.33-25.06c-0.49,0.24-0.33,0.98,0.22,0.97
	c5.34-0.08,18.5,2.21,29.62,24.26C407.55,525.77,407.98,525.61,407.89,525.3z"/>
<path id="svg_path" class="st1" d="M295.91,429.14c9.37-22.26,41.1-85.02,98.58-77.43c0.53,0.07,0.58,0.82,0.07,0.96
	c-12.04,3.08-65.51,19.63-97.77,76.89C296.48,430.09,295.67,429.7,295.91,429.14z"/>
</svg>

