<?xml version="1.0" encoding="utf-8"?>
<!-- Generator: Adobe Illustrator 27.8.1, SVG Export Plug-In . SVG Version: 6.00 Build 0)  -->
<svg version="1.1" id="Laag_1" xmlns="http://www.w3.org/2000/svg" xmlns:xlink="http://www.w3.org/1999/xlink" x="0px" y="0px"
	 viewBox="0 0 768 1024" style="enable-background:new 0 0 768 1024;" xml:space="preserve">
<style type="text/css">
	.st0{stroke:#000000;stroke-miterlimit:10;}
	.st1{fill:#FFFFFF;}
</style>
<path id="svg_path" class="st0" d="M401.28,629.92c3.01,12.22,10.54,27.64,15.4,36.85c4.71,8.94,11.17,16.87,19.14,23.07
	c15.55,12.11,41.98,22.79,72.36-6.39c48.61-46.68,16.86-204.06,5.47-253.66c-11.39-49.6-32.17-105.9-117.96-107.24
	C309.91,321.21,271.7,455.93,265,480.06c-6.7,24.13-33.51,163.54,22.79,201.07c56.3,37.53,81.83-5.81,81.83-5.81
	c4.53-8.43,6.21-10.9,8.44-16.41c7.61-18.73,7.22-25.17,7.7-27.02h0c4.8,2.32,10.5,1.78,14.77-1.41L401.28,629.92z M392.21,594.27
	c-11.76-0.58-20.69-19.68-19.93-42.67c0.75-22.99,10.89-41.16,22.66-40.59c11.76,0.58,20.69,19.68,19.93,42.67
	C414.12,576.67,403.97,594.85,392.21,594.27z"/>
<path id="svg_path" class="st1" d="M422.72,529.49c0,0,4.3-31-23.32-25.96C399.4,503.52,418.51,502.5,422.72,529.49z"/>
<path id="svg_path" class="st1" d="M315.5,398.89c10.78-17.99,44.66-64.25,104.04-55.78c0.87,0.12,0.72,1.48-0.16,1.52
	c-18.68,0.77-62.9,7.96-102.74,55.1C316.03,400.44,315.02,399.7,315.5,398.89z"/>
</svg>
