<?xml version="1.0" encoding="utf-8"?>
<!-- Generator: Adobe Illustrator 27.8.1, SVG Export Plug-In . SVG Version: 6.00 Build 0)  -->
<svg version="1.1" id="Laag_1" xmlns="http://www.w3.org/2000/svg" xmlns:xlink="http://www.w3.org/1999/xlink" x="0px" y="0px"
	 viewBox="0 0 768 1024" style="enable-background:new 0 0 768 1024;" xml:space="preserve">
<style type="text/css">
	.st0{stroke:#1D1D1B;stroke-miterlimit:10;}
	.st1{fill:#FFFFFF;}
</style>
<path id="svg_path" class="st0" d="M440.23,511.13c17.05-6.82,36.12-24.85,42.95-31.67c1.42-1.42,2.86-2.8,4.36-4.14
	c24.99-22.34,52.71-100.91-6.53-135.89c-67.14-39.65-138.4-6.07-160.29,6.22c-4.38,2.46-8.53,5.34-12.3,8.66
	c-74.53,65.57-59.86,202.22-63.22,273.95c-3.44,73.45,38.15,73.54,38.15,73.54c0,0,0,0,0,0c102.94,12.46,92.74-98.8,92.74-98.82
	c0,0,0,0,0,0c40.09,94.94,93.08,131.11,137.69,71.42C558.39,614.7,440.23,511.13,440.23,511.13
	C440.23,511.13,440.23,511.13,440.23,511.13z M395.04,474.13c-14.41,24.06-35.57,37.89-47.26,30.89c-11.7-7-9.5-32.19,4.9-56.25
	c14.41-24.06,35.57-37.89,47.26-30.89C411.64,424.89,409.44,450.07,395.04,474.13z"/>
<path id="svg_path" class="st1" d="M269.54,455.47c4.93-27.37,23.44-98.29,84.38-111.6c1.2-0.26,1.78,1.41,0.67,1.94
	c-17.36,8.26-55.32,34.21-83.07,110.2C271.09,457.19,269.32,456.71,269.54,455.47z"/>
<path id="svg_path" class="st1" d="M418.49,436.1c1.44-11.32,2.21-41.61-33.73-28.56c-0.38,0.14-0.25,0.72,0.15,0.66
	c9.07-1.3,31.88-1.62,32.91,27.85C417.83,436.47,418.43,436.51,418.49,436.1z"/>
</svg>

