<?xml version="1.0" encoding="utf-8"?>
<!-- Generator: Adobe Illustrator 27.8.1, SVG Export Plug-In . SVG Version: 6.00 Build 0)  -->
<svg version="1.1" id="Laag_1" xmlns="http://www.w3.org/2000/svg" xmlns:xlink="http://www.w3.org/1999/xlink" x="0px" y="0px"
	 viewBox="0 0 768 1024" style="enable-background:new 0 0 768 1024;" xml:space="preserve">
<style type="text/css">
	.st0{stroke:#000000;stroke-miterlimit:10;}
	.st1{fill:#FFFFFF;}
</style>
<path id="svg_path" class="st0" d="M311.76,442.27c0,0-68.96-8.8-63.98-60.46c1.82-18.92,13.1-35.62,29.66-44.95
	c16.64-9.37,44.23-19.12,85.9-17.63c77.85,2.77,122.73,14.68,140.73,38.23c18.01,23.55,10.8,58.81-4.99,84.81
	c-15.79,26-55.06,81.95-108.3,129.03c0,0,142.52-31.28,140.67,53.77s-112.4,81.35-162.05,79.5c-49.65-1.85-130.4-14.14-131.92-54.54
	c-0.43-11.42,6.32-35.57,16.7-58.52c11.83-26.17,31.13-52.49,53.19-79.36c23.42-28.51,59.89-53.3,83.41-65.61
	C390.79,446.55,353.88,450.95,311.76,442.27z"/>
<path id="svg_path" class="st1" d="M356.15,333.87c-19.66,0.74-88.67,5.9-90.15,42.08c-0.01,0.26,0.34,0.36,0.46,0.13
	c2.76-5.31,18.89-29.3,89.74-41.48C356.66,334.51,356.61,333.85,356.15,333.87z"/>
</svg>
